<svg width="40" height="40" viewBox="0 0 40 40" fill="none" xmlns="http://www.w3.org/2000/svg">
<path fill-rule="evenodd" clip-rule="evenodd" d="M5.7612 11.1732C5 13.0109 5 15.3406 5 20C5 24.6594 5 26.9891 5.7612 28.8268C6.77614 31.2771 8.72289 33.2239 11.1732 34.2388C13.0109 35 15.3406 35 20 35H25C29.714 35 32.0711 35 33.5355 33.5355C35 32.0711 35 29.714 35 25V20C35 15.3406 35 13.0109 34.2388 11.1732C33.2239 8.72288 31.2771 6.77614 28.8268 5.7612C26.9891 5 24.6594 5 20 5C15.3406 5 13.0109 5 11.1732 5.7612C8.72289 6.77614 6.77614 8.72288 5.7612 11.1732ZM20 13.3336C19.0795 13.3336 18.3333 14.0798 18.3333 15.0002V18.3328H15C14.0795 18.3328 13.3333 19.079 13.3333 19.9994C13.3333 20.9199 14.0795 21.6661 15 21.6661H18.3333V25.0002C18.3333 25.9207 19.0795 26.6669 20 26.6669C20.9205 26.6669 21.6667 25.9207 21.6667 25.0002V21.6661H25C25.9205 21.6661 26.6667 20.9199 26.6667 19.9994C26.6667 19.079 25.9205 18.3328 25 18.3328H21.6667V15.0002C21.6667 14.0798 20.9205 13.3336 20 13.3336Z" fill="#B3FD14"/>
</svg>
